<?xml version="1.0" encoding="UTF-8"?>
<svg xmlns="http://www.w3.org/2000/svg" id="dfd_customer" width="1046" height="1390" viewBox="0 0 1046 1390" font-family="Arial, Helvetica, sans-serif"><title>Level 1 DFD of the Customer</title><defs><marker id="dfd_customer-ah" viewBox="0 0 10 10" refX="2" refY="5" markerWidth="10" markerHeight="10" markerUnits="userSpaceOnUse" orient="auto"><path d="M0,1 L10,5 L0,9 Z" fill="#333333"/></marker></defs><rect x="0" y="0" width="1046" height="1390" fill="#ffffff"/><g><polyline points="46,538 46,77 332,77" fill="none" stroke="#333333" stroke-width="1.3" marker-end="url(#dfd_customer-ah)"/><polyline points="340,107 58.57142857142857,107 58.57142857142857,530" fill="none" stroke="#333333" stroke-width="1.3" marker-end="url(#dfd_customer-ah)"/><polyline points="71.14285714285714,538 71.14285714285714,217 332,217" fill="none" stroke="#333333" stroke-width="1.3" marker-end="url(#dfd_customer-ah)"/><polyline points="340,247 83.71428571428572,247 83.71428571428572,530" fill="none" stroke="#333333" stroke-width="1.3" marker-end="url(#dfd_customer-ah)"/><polyline points="96.28571428571428,538 96.28571428571428,357 332,357" fill="none" stroke="#333333" stroke-width="1.3" marker-end="url(#dfd_customer-ah)"/><polyline points="340,387 108.85714285714286,387 108.85714285714286,530" fill="none" stroke="#333333" stroke-width="1.3" marker-end="url(#dfd_customer-ah)"/><polyline points="121.42857142857143,538 121.42857142857143,497 332,497" fill="none" stroke="#333333" stroke-width="1.3" marker-end="url(#dfd_customer-ah)"/><polyline points="340,527 134,527 134,530" fill="none" stroke="#333333" stroke-width="1.3" marker-end="url(#dfd_customer-ah)"/><polyline points="134,626 134,637 332,637" fill="none" stroke="#333333" stroke-width="1.3" marker-end="url(#dfd_customer-ah)"/><polyline points="340,667 119.33333333333333,667 119.33333333333333,634" fill="none" stroke="#333333" stroke-width="1.3" marker-end="url(#dfd_customer-ah)"/><polyline points="104.66666666666666,626 104.66666666666666,777 332,777" fill="none" stroke="#333333" stroke-width="1.3" marker-end="url(#dfd_customer-ah)"/><polyline points="340,807 90,807 90,634" fill="none" stroke="#333333" stroke-width="1.3" marker-end="url(#dfd_customer-ah)"/><polyline points="75.33333333333333,626 75.33333333333333,917 332,917" fill="none" stroke="#333333" stroke-width="1.3" marker-end="url(#dfd_customer-ah)"/><polyline points="340,947 60.666666666666664,947 60.666666666666664,634" fill="none" stroke="#333333" stroke-width="1.3" marker-end="url(#dfd_customer-ah)"/><polyline points="340,1090 46,1090 46,634" fill="none" stroke="#333333" stroke-width="1.3" marker-end="url(#dfd_customer-ah)"/><polyline points="526,92 704,92" fill="none" stroke="#333333" stroke-width="1.3" marker-end="url(#dfd_customer-ah)"/><polyline points="526,232 704,232" fill="none" stroke="#333333" stroke-width="1.3" marker-end="url(#dfd_customer-ah)"/><polyline points="746,426 746,396 534,396" fill="none" stroke="#333333" stroke-width="1.3" marker-end="url(#dfd_customer-ah)"/><polyline points="746,464 746,466 534,466" fill="none" stroke="#333333" stroke-width="1.3" marker-end="url(#dfd_customer-ah)"/><polyline points="770,464 770,606 534,606" fill="none" stroke="#333333" stroke-width="1.3" marker-end="url(#dfd_customer-ah)"/><polyline points="526,816 746,816 746,833" fill="none" stroke="#333333" stroke-width="1.3" marker-end="url(#dfd_customer-ah)"/><polyline points="746,879 746,886 534,886" fill="none" stroke="#333333" stroke-width="1.3" marker-end="url(#dfd_customer-ah)"/><polyline points="526,908 770,908 770,887" fill="none" stroke="#333333" stroke-width="1.3" marker-end="url(#dfd_customer-ah)"/><polyline points="526,1044 794,1044 794,887" fill="none" stroke="#333333" stroke-width="1.3" marker-end="url(#dfd_customer-ah)"/><polyline points="526,1090 704,1090" fill="none" stroke="#333333" stroke-width="1.3" marker-end="url(#dfd_customer-ah)"/><polyline points="433,702 433,734" fill="none" stroke="#333333" stroke-width="1.3" marker-end="url(#dfd_customer-ah)"/><polyline points="470,1140 470,1272 872,1272" fill="none" stroke="#333333" stroke-width="1.3" marker-end="url(#dfd_customer-ah)"/><polyline points="945,1314 945,1336 400,1336 400,1148" fill="none" stroke="#333333" stroke-width="1.3" marker-end="url(#dfd_customer-ah)"/></g><g><rect x="340" y="42" width="186" height="100" rx="10" ry="10" fill="#fff" stroke="#111111" stroke-width="1.5"/><line x1="340" y1="70" x2="526" y2="70" stroke="#111111" stroke-width="1.3"/><text text-anchor="middle" font-size="15" font-weight="400" fill="#111111"><tspan x="433" y="61.3">1.0</tspan></text><text text-anchor="middle" font-size="15" font-weight="400" fill="#111111"><tspan x="433" y="111.3">Register and Log In</tspan></text><rect x="340" y="182" width="186" height="100" rx="10" ry="10" fill="#fff" stroke="#111111" stroke-width="1.5"/><line x1="340" y1="210" x2="526" y2="210" stroke="#111111" stroke-width="1.3"/><text text-anchor="middle" font-size="15" font-weight="400" fill="#111111"><tspan x="433" y="201.3">2.0</tspan></text><text text-anchor="middle" font-size="15" font-weight="400" fill="#111111"><tspan x="433" y="251.3">Submit Feedback</tspan></text><rect x="340" y="322" width="186" height="100" rx="10" ry="10" fill="#fff" stroke="#111111" stroke-width="1.5"/><line x1="340" y1="350" x2="526" y2="350" stroke="#111111" stroke-width="1.3"/><text text-anchor="middle" font-size="15" font-weight="400" fill="#111111"><tspan x="433" y="341.3">3.0</tspan></text><text text-anchor="middle" font-size="15" font-weight="400" fill="#111111"><tspan x="433" y="391.3">Browse Menu</tspan></text><rect x="340" y="462" width="186" height="100" rx="10" ry="10" fill="#fff" stroke="#111111" stroke-width="1.5"/><line x1="340" y1="490" x2="526" y2="490" stroke="#111111" stroke-width="1.3"/><text text-anchor="middle" font-size="15" font-weight="400" fill="#111111"><tspan x="433" y="481.3">4.0</tspan></text><text text-anchor="middle" font-size="15" font-weight="400" fill="#111111"><tspan x="433" y="531.3">Ask Chatbot</tspan></text><rect x="340" y="602" width="186" height="100" rx="10" ry="10" fill="#fff" stroke="#111111" stroke-width="1.5"/><line x1="340" y1="630" x2="526" y2="630" stroke="#111111" stroke-width="1.3"/><text text-anchor="middle" font-size="15" font-weight="400" fill="#111111"><tspan x="433" y="621.3">5.0</tspan></text><text text-anchor="middle" font-size="15" font-weight="400" fill="#111111"><tspan x="433" y="662.3">Select</tspan><tspan x="433" y="680.3">Advance Order</tspan></text><rect x="340" y="742" width="186" height="100" rx="10" ry="10" fill="#fff" stroke="#111111" stroke-width="1.5"/><line x1="340" y1="770" x2="526" y2="770" stroke="#111111" stroke-width="1.3"/><text text-anchor="middle" font-size="15" font-weight="400" fill="#111111"><tspan x="433" y="761.3">6.0</tspan></text><text text-anchor="middle" font-size="15" font-weight="400" fill="#111111"><tspan x="433" y="811.3">Book Reservation</tspan></text><rect x="340" y="882" width="186" height="100" rx="10" ry="10" fill="#fff" stroke="#111111" stroke-width="1.5"/><line x1="340" y1="910" x2="526" y2="910" stroke="#111111" stroke-width="1.3"/><text text-anchor="middle" font-size="15" font-weight="400" fill="#111111"><tspan x="433" y="901.3">7.0</tspan></text><text text-anchor="middle" font-size="15" font-weight="400" fill="#111111"><tspan x="433" y="942.3">View and Cancel</tspan><tspan x="433" y="960.3">Reservations</tspan></text><rect x="340" y="1040" width="186" height="100" rx="10" ry="10" fill="#fff" stroke="#111111" stroke-width="1.5"/><line x1="340" y1="1068" x2="526" y2="1068" stroke="#111111" stroke-width="1.3"/><text text-anchor="middle" font-size="15" font-weight="400" fill="#111111"><tspan x="433" y="1059.3">8.0</tspan></text><text text-anchor="middle" font-size="15" font-weight="400" fill="#111111"><tspan x="433" y="1100.3">Pay Reservation</tspan><tspan x="433" y="1118.3">Online</tspan></text><path d="M908,73 L712,73 L712,111 L908,111" fill="#fff" stroke="#111111" stroke-width="1.5"/><line x1="754" y1="73" x2="754" y2="111" stroke="#111111" stroke-width="1.3"/><text text-anchor="middle" font-size="14" font-weight="400" fill="#111111"><tspan x="733" y="96.9">D1</tspan></text><text text-anchor="middle" font-size="14" font-weight="400" fill="#111111"><tspan x="831" y="96.9">Users</tspan></text><path d="M908,213 L712,213 L712,251 L908,251" fill="#fff" stroke="#111111" stroke-width="1.5"/><line x1="754" y1="213" x2="754" y2="251" stroke="#111111" stroke-width="1.3"/><text text-anchor="middle" font-size="14" font-weight="400" fill="#111111"><tspan x="733" y="236.9">D15</tspan></text><text text-anchor="middle" font-size="14" font-weight="400" fill="#111111"><tspan x="831" y="236.9">Feedback</tspan></text><path d="M908,426 L712,426 L712,464 L908,464" fill="#fff" stroke="#111111" stroke-width="1.5"/><line x1="754" y1="426" x2="754" y2="464" stroke="#111111" stroke-width="1.3"/><text text-anchor="middle" font-size="14" font-weight="400" fill="#111111"><tspan x="733" y="449.9">D2</tspan></text><text text-anchor="middle" font-size="14" font-weight="400" fill="#111111"><tspan x="831" y="449.9">Menu</tspan></text><path d="M908,841 L712,841 L712,879 L908,879" fill="#fff" stroke="#111111" stroke-width="1.5"/><line x1="754" y1="841" x2="754" y2="879" stroke="#111111" stroke-width="1.3"/><text text-anchor="middle" font-size="14" font-weight="400" fill="#111111"><tspan x="733" y="864.9">D5</tspan></text><text text-anchor="middle" font-size="14" font-weight="400" fill="#111111"><tspan x="831" y="864.9">Reservations</tspan></text><path d="M908,1071 L712,1071 L712,1109 L908,1109" fill="#fff" stroke="#111111" stroke-width="1.5"/><line x1="754" y1="1071" x2="754" y2="1109" stroke="#111111" stroke-width="1.3"/><text text-anchor="middle" font-size="14" font-weight="400" fill="#111111"><tspan x="733" y="1094.9">D6</tspan></text><text text-anchor="middle" font-size="14" font-weight="400" fill="#111111"><tspan x="831" y="1094.9">Reservation Payments</tspan></text><rect x="30" y="538" width="120" height="88" rx="2" ry="2" fill="#fff" stroke="#111111" stroke-width="1.5"/><text text-anchor="middle" font-size="16" font-weight="400" fill="#111111"><tspan x="90" y="587.6">Customer</tspan></text><rect x="880" y="1230" width="130" height="84" rx="2" ry="2" fill="#fff" stroke="#111111" stroke-width="1.5"/><text text-anchor="middle" font-size="16" font-weight="400" fill="#111111"><tspan x="945" y="1277.6">PayMongo</tspan></text></g><g><rect x="220.4" y="38.5" width="110.6" height="35.0" fill="#fff"/><text text-anchor="end" font-size="13" font-weight="700" fill="#111111"><tspan x="327" y="52.5">Registration and</tspan><tspan x="327" y="68.5">login details</tspan></text><rect x="245.7" y="110.5" width="85.3" height="19.0" fill="#fff"/><text text-anchor="end" font-size="13" font-weight="700" fill="#111111"><tspan x="327" y="124.5">Login status</tspan></text><rect x="194.4" y="194.6" width="137.2" height="19.0" fill="#fff"/><text text-anchor="end" font-size="13" font-weight="700" fill="#111111"><tspan x="327" y="208.6">Rating and comment</tspan></text><rect x="216.1" y="250.6" width="115.7" height="35.0" fill="#fff"/><text text-anchor="end" font-size="13" font-weight="700" fill="#111111"><tspan x="327" y="264.6">Feedback history</tspan><tspan x="327" y="280.6">and reviews</tspan></text><rect x="163.3" y="334.6" width="168.6" height="19.0" fill="#fff"/><text text-anchor="end" font-size="13" font-weight="700" fill="#111111"><tspan x="327" y="348.6">Search and category filter</tspan></text><rect x="182.8" y="390.6" width="148.2" height="19.0" fill="#fff"/><text text-anchor="end" font-size="13" font-weight="700" fill="#111111"><tspan x="327" y="404.6">Menu items and prices</tspan></text><rect x="266.7" y="474.6" width="64.4" height="19.0" fill="#fff"/><text text-anchor="end" font-size="13" font-weight="700" fill="#111111"><tspan x="327" y="488.6">Question</tspan></text><rect x="239.2" y="530.5" width="92.6" height="19.0" fill="#fff"/><text text-anchor="end" font-size="13" font-weight="700" fill="#111111"><tspan x="327" y="544.5">Chatbot reply</tspan></text><rect x="213.9" y="598.5" width="117.9" height="35.0" fill="#fff"/><text text-anchor="end" font-size="13" font-weight="700" fill="#111111"><tspan x="327" y="612.5">Food preferences</tspan><tspan x="327" y="628.5">and item quantity</tspan></text><rect x="211.8" y="670.5" width="119.3" height="19.0" fill="#fff"/><text text-anchor="end" font-size="13" font-weight="700" fill="#111111"><tspan x="327" y="684.5">Suggested dishes</tspan></text><rect x="187.2" y="738.5" width="144.2" height="35.0" fill="#fff"/><text text-anchor="end" font-size="13" font-weight="700" fill="#111111"><tspan x="327" y="752.5">Date, time slot,</tspan><tspan x="327" y="768.5">and number of guests</tspan></text><rect x="201.1" y="810.5" width="129.9" height="19.0" fill="#fff"/><text text-anchor="end" font-size="13" font-weight="700" fill="#111111"><tspan x="327" y="824.5">Available time slots</tspan></text><rect x="195.1" y="894.5" width="136.5" height="19.0" fill="#fff"/><text text-anchor="end" font-size="13" font-weight="700" fill="#111111"><tspan x="327" y="908.5">Cancellation request</tspan></text><rect x="201.6" y="950.5" width="130.1" height="35.0" fill="#fff"/><text text-anchor="end" font-size="13" font-weight="700" fill="#111111"><tspan x="327" y="964.5">Reservation history</tspan><tspan x="327" y="980.5">and status</tspan></text><rect x="166.2" y="1051.5" width="164.8" height="35.0" fill="#fff"/><text text-anchor="end" font-size="13" font-weight="700" fill="#111111"><tspan x="327" y="1065.5">Reservation confirmation</tspan><tspan x="327" y="1081.5">with QR code</tspan></text><rect x="582.9" y="69.5" width="122.8" height="19.0" fill="#fff"/><text text-anchor="end" font-size="13" font-weight="700" fill="#111111"><tspan x="701" y="83.5">Customer account</tspan></text><rect x="593.0" y="209.6" width="112.1" height="19.0" fill="#fff"/><text text-anchor="end" font-size="13" font-weight="700" fill="#111111"><tspan x="701" y="223.6">Feedback record</tspan></text><rect x="753.0" y="373.6" width="79.5" height="19.0" fill="#fff"/><text text-anchor="start" font-size="13" font-weight="700" fill="#111111"><tspan x="757" y="387.6">Menu items</tspan></text><rect x="562.7" y="469.6" width="142.3" height="19.0" fill="#fff"/><text text-anchor="end" font-size="13" font-weight="700" fill="#111111"><tspan x="701" y="483.6">Menu and ingredients</tspan></text><rect x="777.0" y="609.5" width="144.6" height="19.0" fill="#fff"/><text text-anchor="start" font-size="13" font-weight="700" fill="#111111"><tspan x="781" y="623.5">Menu items and stock</tspan></text><rect x="753.0" y="777.5" width="109.2" height="35.0" fill="#fff"/><text text-anchor="start" font-size="13" font-weight="700" fill="#111111"><tspan x="757" y="791.5">Reservation and</tspan><tspan x="757" y="807.5">advance order</tspan></text><rect x="571.3" y="863.5" width="133.7" height="19.0" fill="#fff"/><text text-anchor="end" font-size="13" font-weight="700" fill="#111111"><tspan x="701" y="877.5">Reservation records</tspan></text><rect x="561.9" y="911.5" width="143.2" height="19.0" fill="#fff"/><text text-anchor="end" font-size="13" font-weight="700" fill="#111111"><tspan x="701" y="925.5">Cancelled reservation</tspan></text><rect x="801.0" y="1047.5" width="146.8" height="19.0" fill="#fff"/><text text-anchor="start" font-size="13" font-weight="700" fill="#111111"><tspan x="805" y="1061.5">Confirmed reservation</tspan></text><rect x="598.7" y="1067.5" width="106.3" height="19.0" fill="#fff"/><text text-anchor="end" font-size="13" font-weight="700" fill="#111111"><tspan x="701" y="1081.5">Payment record</tspan></text><rect x="438.0" y="704.5" width="99.0" height="35.0" fill="#fff"/><text text-anchor="start" font-size="13" font-weight="700" fill="#111111"><tspan x="442" y="718.5">Selected items</tspan><tspan x="442" y="734.5">and deposit</tspan></text><rect x="643.6" y="1249.5" width="113.4" height="19.0" fill="#fff"/><text text-anchor="middle" font-size="13" font-weight="700" fill="#111111"><tspan x="700" y="1263.5">Payment request</tspan></text><rect x="648.0" y="1313.5" width="104.1" height="19.0" fill="#fff"/><text text-anchor="middle" font-size="13" font-weight="700" fill="#111111"><tspan x="700" y="1327.5">Payment status</tspan></text></g></svg>